<svg width="142" height="24" viewBox="0 0 142 24" fill="none" xmlns="http://www.w3.org/2000/svg">
<path d="M10.163 5.06C9.30305 5.06 8.53305 5.23 7.85305 5.57C7.19305 5.91 6.63305 6.4 6.17305 7.04C5.71305 7.66 5.36305 8.42 5.12305 9.32C4.90305 10.22 4.79305 11.23 4.79305 12.35C4.79305 13.87 4.97305 15.17 5.33305 16.25C5.71305 17.31 6.30305 18.12 7.10305 18.68C7.90305 19.24 8.92305 19.52 10.163 19.52C11.043 19.52 11.913 19.42 12.773 19.22C13.653 19.02 14.603 18.74 15.623 18.38V22.19C14.683 22.57 13.753 22.85 12.833 23.03C11.913 23.21 10.883 23.3 9.74305 23.3C7.54305 23.3 5.72305 22.85 4.28305 21.95C2.86305 21.03 1.81305 19.75 1.13305 18.11C0.453047 16.45 0.113047 14.52 0.113047 12.32C0.113047 10.7 0.333047 9.22 0.773047 7.88C1.21305 6.52 1.85305 5.35 2.69305 4.37C3.55305 3.39 4.60305 2.63 5.84305 2.09C7.10305 1.55 8.54305 1.28 10.163 1.28C11.223 1.28 12.283 1.42 13.343 1.7C14.423 1.96 15.453 2.32 16.433 2.78L14.963 6.47C14.163 6.09 13.353 5.76 12.533 5.48C11.733 5.2 10.943 5.06 10.163 5.06ZM34.6946 14.78C34.6946 16.14 34.5046 17.35 34.1246 18.41C33.7646 19.47 33.2346 20.37 32.5346 21.11C31.8546 21.83 31.0246 22.38 30.0446 22.76C29.0646 23.12 27.9546 23.3 26.7146 23.3C25.5746 23.3 24.5146 23.12 23.5346 22.76C22.5746 22.38 21.7446 21.83 21.0446 21.11C20.3446 20.37 19.7946 19.47 19.3946 18.41C19.0146 17.35 18.8246 16.14 18.8246 14.78C18.8246 12.96 19.1446 11.43 19.7846 10.19C20.4246 8.93 21.3446 7.97 22.5446 7.31C23.7446 6.65 25.1646 6.32 26.8046 6.32C28.3446 6.32 29.7046 6.65 30.8846 7.31C32.0646 7.97 32.9946 8.93 33.6746 10.19C34.3546 11.43 34.6946 12.96 34.6946 14.78ZM23.3846 14.78C23.3846 15.86 23.4946 16.77 23.7146 17.51C23.9546 18.23 24.3246 18.78 24.8246 19.16C25.3246 19.52 25.9746 19.7 26.7746 19.7C27.5746 19.7 28.2146 19.52 28.6946 19.16C29.1946 18.78 29.5546 18.23 29.7746 17.51C30.0146 16.77 30.1346 15.86 30.1346 14.78C30.1346 13.7 30.0146 12.8 29.7746 12.08C29.5546 11.36 29.1946 10.82 28.6946 10.46C28.1946 10.1 27.5446 9.92 26.7446 9.92C25.5646 9.92 24.7046 10.33 24.1646 11.15C23.6446 11.95 23.3846 13.16 23.3846 14.78ZM43.5788 23.3C41.7588 23.3 40.2688 22.59 39.1088 21.17C37.9688 19.73 37.3988 17.62 37.3988 14.84C37.3988 12.04 37.9788 9.92 39.1388 8.48C40.2988 7.04 41.8188 6.32 43.6988 6.32C44.4788 6.32 45.1688 6.43 45.7688 6.65C46.3688 6.85 46.8788 7.13 47.2988 7.49C47.7388 7.85 48.1088 8.26 48.4088 8.72H48.5588C48.4988 8.4 48.4288 7.94 48.3488 7.34C48.2688 6.72 48.2288 6.09 48.2288 5.45V0.199998H52.6988V23H49.2788L48.4088 20.87H48.2288C47.9488 21.31 47.5888 21.72 47.1488 22.1C46.7288 22.46 46.2288 22.75 45.6488 22.97C45.0688 23.19 44.3788 23.3 43.5788 23.3ZM45.1388 19.73C46.3788 19.73 47.2488 19.37 47.7488 18.65C48.2488 17.91 48.5088 16.81 48.5288 15.35V14.87C48.5288 13.27 48.2788 12.05 47.7788 11.21C47.2988 10.37 46.3988 9.95 45.0788 9.95C44.0988 9.95 43.3288 10.38 42.7688 11.24C42.2088 12.08 41.9288 13.3 41.9288 14.9C41.9288 16.5 42.2088 17.71 42.7688 18.53C43.3288 19.33 44.1188 19.73 45.1388 19.73ZM64.1232 6.32C65.6432 6.32 66.9432 6.61 68.0232 7.19C69.1232 7.77 69.9732 8.61 70.5732 9.71C71.1732 10.81 71.4732 12.16 71.4732 13.76V15.92H60.9132C60.9532 17.18 61.3232 18.17 62.0232 18.89C62.7432 19.61 63.7332 19.97 64.9932 19.97C66.0532 19.97 67.0132 19.87 67.8732 19.67C68.7332 19.45 69.6232 19.12 70.5432 18.68V22.13C69.7432 22.53 68.8932 22.82 67.9932 23C67.1132 23.2 66.0432 23.3 64.7832 23.3C63.1432 23.3 61.6932 23 60.4332 22.4C59.1732 21.78 58.1832 20.85 57.4632 19.61C56.7432 18.37 56.3832 16.81 56.3832 14.93C56.3832 13.01 56.7032 11.42 57.3432 10.16C58.0032 8.88 58.9132 7.92 60.0732 7.28C61.2332 6.64 62.5832 6.32 64.1232 6.32ZM64.1532 9.5C63.2932 9.5 62.5732 9.78 61.9932 10.34C61.4332 10.9 61.1032 11.77 61.0032 12.95H67.2732C67.2732 12.29 67.1532 11.7 66.9132 11.18C66.6932 10.66 66.3532 10.25 65.8932 9.95C65.4332 9.65 64.8532 9.5 64.1532 9.5ZM108.572 6.62V23H104.102V6.62H108.572ZM106.352 0.199998C107.012 0.199998 107.582 0.359999 108.062 0.679999C108.542 0.979999 108.782 1.55 108.782 2.39C108.782 3.21 108.542 3.78 108.062 4.1C107.582 4.42 107.012 4.58 106.352 4.58C105.672 4.58 105.092 4.42 104.612 4.1C104.152 3.78 103.922 3.21 103.922 2.39C103.922 1.55 104.152 0.979999 104.612 0.679999C105.092 0.359999 105.672 0.199998 106.352 0.199998ZM120.142 19.73C120.642 19.73 121.122 19.68 121.582 19.58C122.042 19.48 122.502 19.36 122.962 19.22V22.55C122.482 22.75 121.882 22.92 121.162 23.06C120.462 23.22 119.692 23.3 118.852 23.3C117.872 23.3 116.992 23.14 116.212 22.82C115.452 22.5 114.842 21.95 114.382 21.17C113.942 20.37 113.722 19.27 113.722 17.87V9.98H111.592V8.09L114.052 6.59L115.342 3.14H118.192V6.62H122.782V9.98H118.192V17.87C118.192 18.49 118.372 18.96 118.732 19.28C119.092 19.58 119.562 19.73 120.142 19.73ZM130.72 4.85C130.72 5.65 130.69 6.42 130.63 7.16C130.59 7.9 130.55 8.42 130.51 8.72H130.75C131.11 8.16 131.53 7.71 132.01 7.37C132.49 7.01 133.02 6.75 133.6 6.59C134.2 6.41 134.83 6.32 135.49 6.32C136.67 6.32 137.7 6.53 138.58 6.95C139.46 7.37 140.14 8.02 140.62 8.9C141.12 9.78 141.37 10.92 141.37 12.32V23H136.9V13.43C136.9 12.25 136.68 11.37 136.24 10.79C135.82 10.19 135.16 9.89 134.26 9.89C133.36 9.89 132.65 10.1 132.13 10.52C131.63 10.94 131.27 11.55 131.05 12.35C130.83 13.15 130.72 14.13 130.72 15.29V23H126.25V0.199998H130.72V4.85Z" fill="#2D2D2D"/>
<path d="M101.768 1.58L96.3078 23H91.1478L88.2378 11.75C88.1778 11.53 88.0978 11.2 87.9978 10.76C87.9178 10.32 87.8178 9.84 87.6978 9.32C87.5978 8.8 87.5078 8.31 87.4278 7.85C87.3478 7.37 87.2878 7 87.2478 6.74C87.2278 7 87.1678 7.37 87.0678 7.85C86.9878 8.31 86.8978 8.8 86.7978 9.32C86.6978 9.82 86.5978 10.3 86.4978 10.76C86.3978 11.2 86.3178 11.54 86.2578 11.78L83.3778 23H78.2178L72.7578 1.58H77.2278L79.9578 13.28C80.0378 13.62 80.1278 14.04 80.2278 14.54C80.3278 15.02 80.4278 15.53 80.5278 16.07C80.6278 16.59 80.7178 17.1 80.7978 17.6C80.8978 18.1 80.9678 18.53 81.0078 18.89C81.0478 18.51 81.1078 18.08 81.1878 17.6C81.2678 17.1 81.3578 16.6 81.4578 16.1C81.5578 15.58 81.6478 15.1 81.7278 14.66C81.8278 14.2 81.9178 13.84 81.9978 13.58L85.1178 1.58H89.4078L92.5278 13.58C92.5878 13.84 92.6678 14.2 92.7678 14.66C92.8678 15.1 92.9678 15.58 93.0678 16.1C93.1678 16.62 93.2578 17.13 93.3378 17.63C93.4178 18.11 93.4778 18.53 93.5178 18.89C93.5778 18.39 93.6678 17.8 93.7878 17.12C93.9078 16.42 94.0378 15.72 94.1778 15.02C94.3378 14.32 94.4678 13.74 94.5678 13.28L97.2978 1.58H101.768Z" fill="#0085FF"/>
</svg>
