<svg width="61" height="61" viewBox="0 0 61 61" fill="none" xmlns="http://www.w3.org/2000/svg">
<g clip-path="url(#clip0_454_116)">
<path d="M10.2292 21.5438L30.2292 10.1152L47.35 19.8985C49.1305 20.9159 50.2292 22.8093 50.2292 24.8599V38.2277C50.2292 40.2783 49.1305 42.1717 47.35 43.1891L33.0643 51.3523C31.3076 52.3562 29.1509 52.3562 27.3942 51.3523L13.1085 43.1891C11.328 42.1717 10.2292 40.2783 10.2292 38.2277C10.2292 34.6691 10.2292 32.0002 10.2292 30.2209" stroke="#888888" stroke-width="2.85714" stroke-linecap="round" stroke-linejoin="round"/>
<path d="M27.52 31.5134C29.2113 32.4241 31.247 32.4241 32.9383 31.5134L48.8006 22.9722" stroke="#888888" stroke-width="2.85714" stroke-linecap="round" stroke-linejoin="round"/>
<path d="M30.2292 32.9722V51.5436" stroke="#888888" stroke-width="2.85714" stroke-linecap="round" stroke-linejoin="round"/>
<path fill-rule="evenodd" clip-rule="evenodd" d="M10.2291 21.5439L30.2291 32.9725L21.6577 35.8297L1.65771 24.4011L10.2291 21.5439Z" stroke="#888888" stroke-width="2.85714" stroke-linecap="round" stroke-linejoin="round"/>
<path fill-rule="evenodd" clip-rule="evenodd" d="M30.2292 10.1152L50.2292 21.5437L55.9435 15.8294L35.9435 4.40088L30.2292 10.1152Z" stroke="#888888" stroke-width="2.85714" stroke-linecap="round" stroke-linejoin="round"/>
</g>
<defs>
<clipPath id="clip0_454_116">
<rect width="60" height="60" fill="white" transform="translate(0.229248 0.115234)"/>
</clipPath>
</defs>
</svg>
