<svg width="35" height="35" viewBox="0 0 35 35" fill="none" xmlns="http://www.w3.org/2000/svg">
<rect x="0.5" y="0.5" width="34" height="34" rx="9.5" stroke="#0085FF"/>
<path d="M24.4298 10.5C24.6184 10.5 24.8004 10.5767 24.9414 10.7156C25.0823 10.8545 25.1723 11.0458 25.1944 11.2533L25.1998 11.3531V16.8985C25.1999 17.6621 24.9359 18.3967 24.4621 18.9513C23.9883 19.5059 23.3408 19.8383 22.6526 19.8802L22.5048 19.8845H12.4294L14.9642 22.6938C15.0968 22.8407 15.1764 23.0362 15.1882 23.2435C15.1999 23.4508 15.143 23.6558 15.0281 23.82L14.9642 23.9002C14.8316 24.047 14.6552 24.1353 14.4681 24.1483C14.2809 24.1614 14.0959 24.0983 13.9478 23.971L13.8754 23.9002L10.0254 19.6345C9.99844 19.6047 9.97348 19.5728 9.95072 19.5389L9.89605 19.4451L9.85447 19.3478L9.82752 19.2583L9.80827 19.1584L9.80288 19.1073L9.7998 19.0313L9.80211 18.9673L9.8152 18.8598L9.8383 18.7651L9.87218 18.6704L9.91222 18.5868L9.9615 18.5084L10.0254 18.4282L13.8754 14.1625C14.014 14.0095 14.1999 13.9207 14.3955 13.914C14.591 13.9074 14.7815 13.9835 14.9282 14.1269C15.075 14.2702 15.1669 14.4701 15.1855 14.6859C15.204 14.9016 15.1478 15.1172 15.0281 15.2886L14.9642 15.3688L12.4294 18.1782H22.5048C22.7918 18.1782 23.0685 18.0598 23.281 17.8461C23.4936 17.6324 23.6267 17.3387 23.6544 17.0222L23.6598 16.8985V11.3531C23.6598 11.1269 23.7409 10.9099 23.8853 10.7499C24.0297 10.5899 24.2256 10.5 24.4298 10.5Z" fill="#0085FF"/>
</svg>
