<svg width="32" height="25" viewBox="0 0 32 25" fill="none" xmlns="http://www.w3.org/2000/svg">
<path d="M3.28585 1.1845e-08C2.41439 1.1845e-08 1.57862 0.3119 0.962404 0.867085C0.346187 1.42227 0 2.17526 0 2.96042V20.1991C0 20.9248 0.181362 21.7139 0.537685 22.3905C0.557609 22.449 0.583687 22.5057 0.615564 22.5597C1.07346 23.3362 1.7689 23.9781 2.61942 24.4093C3.46994 24.8404 4.43987 25.0428 5.41419 24.9924H24.5394C25.2304 24.9894 25.9022 24.7872 26.4564 24.4153C27.0106 24.0435 27.4181 23.5215 27.6193 22.9259L31.8408 11.5648L31.8461 11.5495C32 11.1121 32.0392 10.6484 31.9605 10.1951C31.8817 9.74174 31.6873 9.31103 31.3925 8.93687C31.0977 8.5627 30.7105 8.25529 30.2614 8.03882C29.8124 7.82236 29.3137 7.70274 28.8046 7.68939V6.72822C28.8046 5.09326 27.4187 3.8447 25.6041 3.8447H16.8912C16.5873 3.84205 16.2967 3.73234 16.0815 3.53904L13.4699 1.1438L13.4613 1.13515C12.6497 0.408028 11.5516 -8.02789e-05 10.407 1.1845e-08H3.28585ZM26.6709 7.68939H10.5467C9.51805 7.68964 8.51457 7.97621 7.67356 8.50991C6.83256 9.04361 6.1951 9.79837 5.84839 10.671L5.84519 10.6786C3.86195 15.8007 2.75564 18.5247 2.13367 19.9617V2.96042C2.13367 2.38756 2.65002 1.92235 3.28585 1.92235H10.407C10.9859 1.92241 11.5414 2.12827 11.9528 2.49521L14.5644 4.89045L14.574 4.8991C15.1892 5.45233 16.022 5.76427 16.8912 5.76704H25.6041C26.2399 5.76704 26.6709 6.15536 26.6709 6.72822V7.68939ZM3.67525 22.7385C3.51479 22.6578 3.363 22.5638 3.22184 22.4578L3.26665 22.3992C3.31679 22.329 3.36373 22.2531 3.40747 22.1781C3.49495 22.0243 3.60164 21.8129 3.73819 21.5207C4.27908 20.3577 5.41206 17.6347 7.85831 11.3149C8.05758 10.8164 8.42265 10.3853 8.90376 10.0805C9.38486 9.77574 9.95859 9.61203 10.5467 9.61174H28.7096C28.8907 9.61221 29.0692 9.6509 29.2308 9.7247C29.3923 9.79851 29.5324 9.90538 29.6399 10.0368C29.7473 10.1681 29.8191 10.3204 29.8495 10.4812C29.8799 10.6421 29.868 10.8071 29.8149 10.9631L25.5902 22.33C25.5883 22.3354 25.5865 22.3409 25.5849 22.3463L25.5806 22.3607C25.513 22.5647 25.3745 22.7436 25.1855 22.8713C24.9965 22.999 24.767 23.0687 24.5308 23.0701H5.38219C5.35978 23.0701 5.33631 23.0701 5.31284 23.072C4.74273 23.1051 4.17413 22.9893 3.67525 22.7385Z" fill="#2D2D2D"/>
</svg>
